#tb 0: 1/4
#media_type 0: video
#codec_id 0: rawvideo
#dimensions 0: 320x240
#sar 0: 1/1
0,          0,          0,        1,   115200, 0xeba70ff3
0,          1,          1,        1,   115200, 0xeba70ff3
0,          2,          2,        1,   115200, 0xa764e4d5
0,          3,          3,        1,   115200, 0xa764e4d5
0,          4,          4,        1,   115200, 0x1dadb3a3
0,          5,          5,        1,   115200, 0x1dadb3a3
0,          6,          6,        1,   115200, 0x2edb3aa4
0,          7,          7,        1,   115200, 0x2edb3aa4
0,          8,          8,        1,   115200, 0xb8cdb7ac
0,          9,          9,        1,   115200, 0xb8cdb7ac
0,         10,         10,        1,   115200, 0x72f1289d
0,         11,         11,        1,   115200, 0x72f1289d
0,         12,         12,        1,   115200, 0xb789c3ba
0,         13,         13,        1,   115200, 0xb789c3ba
0,         14,         14,        1,   115200, 0xd779fa6d
0,         15,         15,        1,   115200, 0xd779fa6d
0,         16,         16,        1,   115200, 0xd1084e35
0,         17,         17,        1,   115200, 0xd1084e35
0,         18,         18,        1,   115200, 0xbbc3728b
0,         19,         19,        1,   115200, 0xbbc3728b
